HIERARCHY
ROOT Hips
{
	OFFSET 0.000000 0.000000 0.000000
	CHANNELS 6 Xposition Yposition Zposition Xrotation Yrotation Zrotation
	JOINT LeftUpLeg_virtual
	{
		OFFSET 0.000000 0.000000 0.000000
		CHANNELS 3 Xrotation Yrotation Zrotation
		JOINT LeftUpLeg
		{
			OFFSET 10.205400 -3.823500 0.155100
			CHANNELS 3 Xrotation Yrotation Zrotation
			JOINT LeftLeg
			{
				OFFSET 0.708757 -12.982077 0.567790
				CHANNELS 3 Xrotation Yrotation Zrotation
				JOINT LeftFoot
				{
					OFFSET -0.708756 -10.717838 -2.184338
					CHANNELS 3 Xrotation Yrotation Zrotation
					JOINT LeftToeBase
					{
						OFFSET 0.108149 -7.191104 7.560241
						CHANNELS 3 Xrotation Yrotation Zrotation
						JOINT LeftToe_End
						{
							OFFSET 0.070230 0.081724 4.490308
							CHANNELS 3 Xrotation Yrotation Zrotation
							End Site
							{
								OFFSET 0 0 0
							}
						}
					}
				}
			}
		}
	}
	JOINT RightUpLeg_virtual
	{
		OFFSET 0.000000 0.000000 0.000000
		CHANNELS 3 Xrotation Yrotation Zrotation
		JOINT RightUpLeg
		{
			OFFSET -10.205400 -3.823500 0.005500
			CHANNELS 3 Xrotation Yrotation Zrotation
			JOINT RightLeg
			{
				OFFSET -0.708756 -12.982134 0.610632
				CHANNELS 3 Xrotation Yrotation Zrotation
				JOINT RightFoot
				{
					OFFSET 0.708754 -10.717769 -1.945823
					CHANNELS 3 Xrotation Yrotation Zrotation
					JOINT RightToeBase
					{
						OFFSET -0.108140 -7.191069 7.372968
						CHANNELS 3 Xrotation Yrotation Zrotation
						JOINT RightToe_End
						{
							OFFSET -0.070227 0.081735 4.479403
							CHANNELS 3 Xrotation Yrotation Zrotation
							End Site
							{
								OFFSET 0 0 0
							}
						}
					}
				}
			}
		}
	}
	JOINT Spine_virtual
	{
		OFFSET 0.000000 0.000000 0.000000
		CHANNELS 3 Xrotation Yrotation Zrotation
		JOINT Spine
		{
			OFFSET 0.000000 6.876099 0.125700
			CHANNELS 3 Xrotation Yrotation Zrotation
			JOINT Spine1
			{
				OFFSET 0.000000 5.730043 0.104720
				CHANNELS 3 Xrotation Yrotation Zrotation
				JOINT Spine1_split
				{
					OFFSET 0.000000 5.730043 0.104720
					CHANNELS 3 Xrotation Yrotation Zrotation
					JOINT Spine2
					{
						OFFSET 0.000000 5.730043 0.104720
						CHANNELS 3 Xrotation Yrotation Zrotation
						JOINT Neck_virtual
						{
							OFFSET 0.000000 0.000000 0.000000
							CHANNELS 3 Xrotation Yrotation Zrotation
							JOINT Neck
							{
								OFFSET 0.000000 10.314075 0.188496
								CHANNELS 3 Xrotation Yrotation Zrotation
								JOINT Head
								{
									OFFSET 0.000000 7.643700 -2.377400
									CHANNELS 3 Xrotation Yrotation Zrotation
									JOINT HeadTop_End
									{
										OFFSET 0.000000 43.788605 -13.619600
										CHANNELS 3 Xrotation Yrotation Zrotation
										End Site
										{
											OFFSET 0 0 0
										}
									}
								}
							}
						}
						JOINT LeftShoulder_virtual
						{
							OFFSET 0.000000 0.000000 0.000000
							CHANNELS 3 Xrotation Yrotation Zrotation
							JOINT LeftShoulder
							{
								OFFSET 2.196100 4.412489 0.087492
								CHANNELS 3 Xrotation Yrotation Zrotation
								JOINT LeftShoulder_split
								{
									OFFSET 2.196100 4.412489 0.087492
									CHANNELS 3 Xrotation Yrotation Zrotation
									JOINT LeftArm
									{
										OFFSET 8.771219 -2.981674 -0.026999
										CHANNELS 3 Xrotation Yrotation Zrotation
										JOINT LeftForeArm
										{
											OFFSET 8.512804 0.000000 -0.000000
											CHANNELS 3 Xrotation Yrotation Zrotation
											JOINT LeftHand
											{
												OFFSET 18.484802 0.000000 -0.000000
												CHANNELS 3 Xrotation Yrotation Zrotation
												End Site
												{
													OFFSET 0 0 0
												}
											}
										}
									}
								}
							}
						}
						JOINT RightShoulder_virtual
						{
							OFFSET 0.000000 0.000000 0.000000
							CHANNELS 3 Xrotation Yrotation Zrotation
							JOINT RightShoulder
							{
								OFFSET -2.196100 4.412496 0.070690
								CHANNELS 3 Xrotation Yrotation Zrotation
								JOINT RightShoulder_split
								{
									OFFSET -2.196100 4.412496 0.070690
									CHANNELS 3 Xrotation Yrotation Zrotation
									JOINT RightArm
									{
										OFFSET -8.771282 -2.981682 -0.094208
										CHANNELS 3 Xrotation Yrotation Zrotation
										JOINT RightForeArm
										{
											OFFSET -8.494598 0.000000 0.000000
											CHANNELS 3 Xrotation Yrotation Zrotation
											JOINT RightHand
											{
												OFFSET -18.483803 0.000000 0.000001
												CHANNELS 3 Xrotation Yrotation Zrotation
												End Site
												{
													OFFSET 0 0 0
												}
											}
										}
									}
								}
							}
						}
					}
				}
			}
		}
	}
}
MOTION
Frames: 5
Frame Time: 0.03333333
0.648685 35.398510 -3.146887 0.000000 0.000000 0.000000 -7.947024 -5.648406 9.290841 13.578250 21.031841 -13.610129 6.174033 0.991302 2.554444 -14.944727 1.682148 1.685695 6.072573 -1.944206 -1.995013 0.000000 0.000000 0.000000 -8.096411 -5.251651 9.089397 -0.832773 -9.327149 -18.980071 22.878996 11.930750 -1.749575 -15.827514 -19.902015 34.793274 -0.108261 5.072781 -22.103862 0.000000 0.000000 0.000000 -10.458115 -3.801041 8.556146 -1.083600 -2.527891 -0.350075 7.838181 3.053973 -0.797311 0.173210 -0.136484 0.104900 0.000000 0.000000 0.000000 10.691119 4.197176 -0.418874 -0.434966 -6.681981 -0.212284 -32.553706 -42.617075 -28.969479 0.000000 0.000000 0.000000 6.622424 3.073547 -1.691514 -0.881416 -32.349115 -3.949711 6.212988 5.901153 -5.401924 13.023672 6.379583 -56.590716 -2.685939 -37.347123 -11.499562 0.000000 0.000000 0.000000 6.773108 3.549762 1.296856 -5.401959 3.862279 6.979247 -4.162196 -1.715101 0.743596 8.269010 9.399843 51.068600 0.967513 14.571956 21.972661 0.000000 0.000000 0.000000 
0.489844 35.530567 -2.808927 0.000000 0.000000 0.000000 -7.986999 -4.856998 9.188603 12.471664 20.416574 -13.011358 5.813707 1.231529 2.412875 -12.321043 1.845050 1.886505 5.536205 -1.837671 -2.179431 0.000000 0.000000 0.000000 -8.216045 -4.638690 9.057785 0.201963 -9.934367 -19.170719 20.701917 11.674657 -1.773095 -14.278306 -18.782735 37.256110 -4.258984 5.667527 -22.013929 0.000000 0.000000 0.000000 -10.588348 -3.762254 8.318260 -0.635361 -2.531511 -0.251147 8.318669 2.950870 -0.800821 0.294670 -0.057169 0.195030 0.000000 0.000000 0.000000 11.081699 4.170969 -0.405276 -1.210237 -6.641368 -0.434287 -32.307287 -42.074863 -27.741348 0.000000 0.000000 0.000000 7.190642 2.973742 -1.687409 -0.568238 -32.996234 -3.572682 7.224659 1.712961 -5.377547 17.301007 4.797019 -58.463305 -0.886399 -36.710645 -10.060521 0.000000 0.000000 0.000000 7.147023 3.490495 1.202890 -5.483127 4.656022 5.855259 -1.906269 0.414613 1.103757 9.087599 11.373789 51.389196 0.332433 17.853995 21.824906 0.000000 0.000000 0.000000 
0.326392 35.801735 -2.546250 0.000000 0.000000 0.000000 -8.059442 -4.162757 8.814211 11.293953 19.730156 -12.158163 5.403161 1.702893 2.798045 -8.826922 2.019136 2.247447 3.090520 -1.693597 -2.485781 0.000000 0.000000 0.000000 -8.225314 -3.950858 8.742601 2.162462 -10.428386 -18.418498 17.396140 10.468301 -2.013240 -14.295910 -18.208789 35.859968 -4.132755 5.384231 -20.605730 0.000000 0.000000 0.000000 -10.536108 -3.474289 7.868525 -0.277457 -2.472642 0.104975 9.275560 2.548008 -0.993767 0.286778 -0.062385 0.186319 0.000000 0.000000 0.000000 12.019958 3.906143 -0.677905 -2.085467 -6.098034 -0.866751 -31.016490 -41.264646 -24.919891 0.000000 0.000000 0.000000 8.592462 2.687419 -1.837072 0.132357 -32.500294 -2.222988 7.236539 -1.014529 -4.513313 23.366436 2.023868 -59.010492 -0.170134 -40.875615 -6.924854 0.000000 0.000000 0.000000 8.446350 3.161766 0.722262 -5.052353 6.007738 3.749809 -0.217527 1.274765 1.175825 12.723013 15.023423 51.942899 0.471480 23.020082 19.022497 0.000000 0.000000 0.000000 
0.197585 36.092022 -2.354464 0.000000 0.000000 0.000000 -8.163192 -3.785966 8.213462 9.910544 19.359130 -11.138605 5.527610 2.156288 3.594748 -5.102527 2.187942 2.289919 -0.046257 -1.478591 -2.933332 0.000000 0.000000 0.000000 -8.153670 -3.581798 8.209315 3.409503 -10.508941 -17.242355 15.010217 8.853725 -2.234966 -13.525443 -17.616388 32.666271 -2.019625 4.729205 -18.269622 0.000000 0.000000 0.000000 -10.553024 -2.864268 7.352746 0.033013 -2.454337 0.585623 10.578868 1.874885 -1.227981 0.160570 -0.146074 0.171811 0.000000 0.000000 0.000000 13.294334 3.370125 -1.088752 -2.774215 -5.067217 -1.552509 -28.559741 -40.027477 -20.911804 0.000000 0.000000 0.000000 10.434707 2.191002 -2.031170 1.111843 -30.889363 -0.053346 6.560731 -2.298679 -4.355041 29.834321 -0.749333 -57.990492 0.374614 -49.397188 -1.509832 0.000000 0.000000 0.000000 10.364038 2.558383 0.071138 -4.240859 7.860366 1.274531 0.843196 0.610803 1.351424 17.237294 18.802553 52.710779 1.956392 29.579835 13.380653 0.000000 0.000000 0.000000 
0.073812 36.345055 -2.213573 0.000000 0.000000 0.000000 -8.239580 -3.704724 7.553750 8.055254 19.232240 -10.021969 6.422867 2.128560 4.609443 -1.173145 2.161799 1.212384 -2.682149 -1.215418 -3.310851 0.000000 0.000000 0.000000 -7.957865 -3.687838 7.514097 2.529977 -9.734479 -16.370094 15.077506 7.999849 -2.225222 -10.213891 -16.134112 31.107205 -3.159754 4.556273 -15.484626 0.000000 0.000000 0.000000 -10.570739 -1.826598 6.881999 0.401545 -2.640730 1.004395 12.014270 1.015892 -1.416221 -0.084465 -0.189538 0.081617 0.000000 0.000000 0.000000 14.685351 2.611111 -1.458682 -3.048272 -3.626633 -2.505730 -25.164842 -38.393945 -16.303754 0.000000 0.000000 0.000000 12.330783 1.517113 -2.183074 2.105005 -28.754984 2.171135 5.534314 -3.323431 -4.867946 36.185055 -2.759578 -55.756986 3.404898 -60.223649 7.822437 0.000000 0.000000 0.000000 12.449451 1.739767 -0.494280 -3.117519 10.381868 -0.699405 1.222271 -0.732133 1.537272 20.697661 22.025485 53.538957 5.546804 37.007450 4.650531 0.000000 0.000000 0.000000 
